# AST/ASF file generated using VICON BodyLanguage
# -----------------------------------------------
:version 1.10
:name VICON
:units
  mass 1.0
  length 0.45
  angle deg
:documentation
   .ast/.asf automatically generated from VICON data using
   VICON BodyBuilder and BodyLanguage model FoxedUp or BRILLIANT.MOD
:root
   order TX TY TZ RX RY RZ
   axis XYZ
   position 0 0 0  
   orientation 0 0 0 
:bonedata
  begin
     id 1 
     name lhipjoint
     direction 0.662698 -0.695252 0.27831 
     length 2.53073 
     axis 0 0 0  XYZ
  end
  begin
     id 2 
     name lfemur
     direction 0.34202 -0.939693 0  
     length 7.16147  
     axis 0 0 20  XYZ
    dof rx ry rz
    limits (-160.0 20.0)
           (-70.0 70.0)
           (-60.0 70.0)
  end
  begin
     id 3 
     name ltibia
     direction 0.34202 -0.939693 0   
     length 7.63967   
     axis 0 0 20   XYZ
    dof rx
    limits (-10.0 170.0)
  end
  begin
     id 4 
     name lfoot
     direction 0.0938457 -0.257721 0.961651   
     length 1.89793   
     axis -90 7.62852e-016 20   XYZ
    dof rx rz
    limits (-45.0 90.0)
           (-70.0 20.0)
  end
  begin
     id 5 
     name ltoes
     direction -0.00116841 -0.0030592 0.999995   
     length 0.955649   
     axis -90 7.62852e-016 20   XYZ
    dof rx
    limits (-90.0 20.0)
  end
  begin
     id 6 
     name rhipjoint
     direction -0.649445 -0.705948 0.282592   
     length 2.49238  
     axis 0 0 0  XYZ 
  end
  begin
     id 7 
     name rfemur
     direction -0.34202 -0.939693 0   
     length 6.90728   
     axis 0 0 -20   XYZ
    dof rx ry rz
    limits (-160.0 20.0)
           (-70.0 70.0)
           (-70.0 60.0)
  end
  begin
     id 8 
     name rtibia
     direction -0.34202 -0.939693 0   
     length 7.72868   
     axis 0 0 -20   XYZ
    dof rx
    limits (-10.0 170.0)
 end
 begin
     id 9 
     name rfoot
     direction -0.0920068 -0.252865 0.963117   
     length 1.97476  
     axis -90 -7.62852e-016 -20   XYZ
    dof rx rz
    limits (-45.0 90.0)
           (-20.0 70.0)
  end
  begin
     id 10 
     name rtoes
     direction 0.000391322 0.00230649 0.999997   
     length 0.992641   
     axis -90 -7.62852e-016 -20   XYZ
    dof rx
    limits (-90.0 20.0)
  end
  begin
     id 11 
     name lowerback
     direction -0.00875327 0.998321 -0.0572635   
     length 2.20024   
     axis 0 0 0   XYZ
    dof rx ry rz
    limits (-20.0 45.0)
           (-30.0 30.0)
           (-30.0 30.0)
  end
  begin
     id 12 
     name upperback
     direction 0.00753931 0.999972 -0.000360425   
     length 2.20538   
     axis 0 0 0   XYZ
    dof rx ry rz
    limits (-20.0 45.0)
           (-30.0 30.0)
           (-30.0 30.0)
  end
  begin
     id 13 
     name thorax
     direction 0.0117767 0.999601 0.0256663   
     length 2.21508   
     axis 0 0 0   XYZ
    dof rx ry rz
    limits (-20.0 45.0)
           (-30.0 30.0)
           (-30.0 30.0)
  end
  begin
     id 14 
     name lowerneck
     direction 0.060228 0.994909 0.0807986   
     length 1.7607   
     axis 0 0 0   XYZ
    dof rx ry rz
    limits (-20.0 45.0)
           (-30.0 30.0)
           (-30.0 30.0)
  end
  begin
     id 15 
     name upperneck
     direction -0.0563647 0.959594 -0.275685   
     length 1.75612   
     axis 0 0 0   XYZ
    dof rx ry rz
    limits (-20.0 45.0)
           (-30.0 30.0)
           (-30.0 30.0)
  end
  begin
     id 16
     name head
     direction -0.0161544 0.99458 -0.102714  
     length 1.79288  
     axis 0 0 0   XYZ
    dof rx ry rz
    limits (-20.0 45.0)
           (-30.0 30.0)
           (-30.0 30.0)
  end
  begin
     id 17 
     name lclavicle
     direction 0.93913 0.332189 -0.087669  
     length 3.52087  
     axis 0 0 0   XYZ
    dof ry rz
    limits (-20.0 10.0)
           (0.0 20.0)
  end
  begin
     id 18 
     name lhumerus
     direction 1 -4.48974e-011 -2.70836e-027   
     length 5.35289   
     axis -180 -30 -90   XYZ
    dof rx ry rz
    limits (-60.0 90.0)
           (-90.0 90.0)
           (-90.0 90.0)
  end
  begin
     id 19
     name lradius
     direction 1 -4.48961e-011 -9.76021e-027   
     length 3.27727   
     axis -180 -30 -90   XYZ
    dof rx
    limits (-10.0 170.0)
  end
  begin
     id 20
     name lwrist
     direction 1 -4.49103e-011 -2.23668e-026   
     length 1.63864   
     axis 1.44924e-014 90 90   XYZ
    dof ry
    limits (-180.0 0.0)
 end
  begin
     id 21 
     name lhand
     direction 1 3.0697e-005 0.000161777   
     length 0.54443   
     axis 2.85318e-014 90 90   XYZ
    dof rx rz
    limits (-90.0 90.0)
           (-45.0 45.0)
  end
  begin
     id 22 
     name lfingers
     direction 1 -4.49027e-011 -8.9447e-026   
     length 0.438912   
     axis 5.70628e-014 90 90   XYZ
    dof rx
    limits (0.0 90.0)
  end
  begin
     id 23
     name lthumb
     direction 0.707058 2.6516e-005 0.707156   
     length 0.630274   
     axis -90 45 -3.53137e-014   XYZ
    dof rx rz
    limits (-45.0 45.0)
           (-45.0 45.0)
  end
  begin
     id 24 
     name rclavicle
     direction -0.95274 0.284984 -0.105215   
     length 3.43401  
     axis 0 0 0   XYZ 
    dof ry rz
    limits (-10.0 20.0)
           (-20.0 0.0)
  end
  begin
     id 25 
     name rhumerus
     direction -0.999999 -0.000575019 -0.00106829  
     length 5.52077   
     axis -180 30 90   XYZ
    dof rx ry rz
    limits (-90.0 60.0)
           (-90.0 90.0)
           (-90.0 90.0)
  end
  begin
     id 26 
     name rradius
     direction -1 -4.4879e-011 -6.35415e-027   
     length 3.32364   
     axis -180 30 90   XYZ
    dof rx
    limits (-10.0 170.0)
  end
  begin
     id 27 
     name rwrist
     direction -1 -4.49048e-011 -9.98542e-027   
     length 1.66182   
     axis 6.32482e-015 -90 -90   XYZ
    dof ry
    limits (-180.0 0.0)
  end
  begin
     id 28
     name rhand
     direction -1 -4.48978e-011 -1.99771e-026   
     length 0.732235   
     axis 1.27479e-014 -90 -90   XYZ
    dof rx rz
    limits (-90.0 90.0)
           (-45.0 45.0)
  end
  begin
     id 29
     name rfingers
     direction -1 -4.49144e-011 -3.99245e-026   
     length 0.590347   
     axis 2.5496e-014 -90 -90   XYZ
    dof rx
    limits (0.0 90.0)
  end
  begin
     id 30
     name rthumb
     direction -0.707107 -6.35121e-011 0.707107   
     length 0.847624   
     axis -90 -45 -2.82974e-014   XYZ
    dof rx rz
    limits (-45.0 45.0)
           (-45.0 45.0)
  end
:hierarchy
  begin
    root lhipjoint rhipjoint lowerback
    lhipjoint lfemur
    lfemur ltibia
    ltibia lfoot
    lfoot ltoes
    rhipjoint rfemur
    rfemur rtibia
    rtibia rfoot
    rfoot rtoes
    lowerback upperback
    upperback thorax
    thorax lowerneck lclavicle rclavicle
    lowerneck upperneck
    upperneck head
    lclavicle lhumerus
    lhumerus lradius
    lradius lwrist
    lwrist lhand lthumb
    lhand lfingers
    rclavicle rhumerus
    rhumerus rradius
    rradius rwrist
    rwrist rhand rthumb
    rhand rfingers
  end

#!OML:ASF G:\Work\Work\Patient Classification 1\Elijah\terrain1\Elijah.ASF
:FULLY-SPECIFIED
:DEGREES
278
root 14.7606 20.7006 15.1691 9.43956 1.79692 3.65007
lowerback 6.27553 -0.265421 -0.475959
upperback 0.658919 -0.318347 2.214
thorax -2.82433 -0.141581 2.5795
lowerneck -11.2847 15.9367 13.2376
upperneck 35.3868 26.6831 -13.9694
head 19.6822 11.1911 -2.71044
rclavicle -6.16232e-015 1.27222e-014
rhumerus -38.4765 -8.71456 -76.5328
rradius 33.9526
rwrist -6.83334
rhand -15.3517 18.4386
rfingers 7.12502
rthumb 10.8255 -11.2624
lclavicle -6.16232e-015 1.27222e-014
lhumerus -38.9213 13.1742 81.8033
lradius 32.405
lwrist -6.45945
lhand -5.30729 27.6742
lfingers 7.12502
lthumb 20.4981 56.6121
rfemur -40.2877 -4.70486 21.3444
rtibia 50.7684
rfoot -20.0102 -6.68548
rtoes -2.75218
lfemur 3.61378 -1.63102 -24.8465
ltibia 15.0974
lfoot 15.0186 -5.22529
ltoes -8.87909
279
root 14.7555 20.7406 15.2578 9.52662 2.37726 3.96504
lowerback 6.01609 -0.397118 -0.414496
upperback 0.820099 -0.492239 2.27351
thorax -2.50453 -0.2322 2.6165
lowerneck -11.6516 15.8386 13.1638
upperneck 35.4764 26.489 -13.8796
head 19.7503 11.0868 -2.68578
rclavicle -8.74653e-015 -6.36111e-015
rhumerus -37.8935 -8.89946 -76.2582
rradius 33.5669
rwrist -5.91182
rhand -14.7147 18.5367
rfingers 7.12502
rthumb 11.4399 -11.1311
lclavicle -8.74653e-015 -6.36111e-015
lhumerus -38.49 13.3092 81.9966
lradius 31.7841
lwrist -7.12648
lhand -4.27944 27.4719
lfingers 7.12502
lthumb 21.4856 56.3004
rfemur -39.6116 -5.61677 21.1097
rtibia 50.3039
rfoot -20.4129 -6.36972
rtoes -2.74615
lfemur 2.77326 -1.5348 -25.0292
ltibia 16.8654
lfoot 15.2305 -5.43684
ltoes -7.24441
280
root 14.7166 20.78 15.3383 9.75858 2.35597 3.87186
lowerback 5.90451 -0.26818 -0.545525
upperback 0.613422 -0.320005 2.50485
thorax -2.66164 -0.141201 2.91692
lowerneck -11.4024 15.6591 13.1004
upperneck 35.502 26.1145 -13.6221
head 19.5271 10.9868 -2.69133
rclavicle 3.18055e-015 -7.95139e-015
rhumerus -37.9799 -8.81187 -75.981
rradius 33.2739
rwrist -5.4155
rhand -14.3521 18.8684
rfingers 7.12502
rthumb 11.7896 -10.7797
lclavicle 3.18055e-015 -7.95139e-015
lhumerus -39.0231 13.2771 82.0404
lradius 31.7338
lwrist -7.67757
lhand -3.41498 27.482
lfingers 7.12502
lthumb 22.3156 56.2133
rfemur -39.2025 -5.20263 21.2951
rtibia 49.6837
rfoot -20.4767 -6.61164
rtoes -2.60967
lfemur 1.39236 -1.15135 -24.7548
ltibia 19.0594
lfoot 15.348 -5.19527
ltoes -5.64589
281
root 14.6976 20.8267 15.4526 9.73451 2.74502 4.02354
lowerback 5.50083 -0.247519 -0.489944
upperback 0.77347 -0.293565 2.57207
thorax -2.27213 -0.13303 2.94776
lowerneck -11.7934 15.4772 12.7654
upperneck 35.4566 25.666 -13.2205
head 19.3192 10.7919 -2.55793
rclavicle -3.97569e-016 7.95139e-015
rhumerus -37.7921 -8.97003 -75.7925
rradius 33.1139
rwrist -4.94126
rhand -14.274 19.0406
rfingers 7.12502
rthumb 11.8649 -10.6032
lclavicle -3.97569e-016 7.95139e-015
lhumerus -39.2163 12.825 82.2951
lradius 31.916
lwrist -7.75515
lhand -2.92606 27.6605
lfingers 7.12502
lthumb 22.7849 56.3349
rfemur -38.1975 -5.77169 21.1946
rtibia 49.0032
rfoot -20.6936 -6.27996
rtoes -2.27493
lfemur 0.285081 -0.863038 -24.7717
ltibia 21.6689
lfoot 15.2335 -5.38939
ltoes -6.11371
282
root 14.6661 20.8616 15.5242 9.82153 2.84619 3.74206
lowerback 5.25787 -0.0732754 -0.2182
upperback 1.02246 -0.0487998 2.78461
thorax -1.89345 -0.0172191 2.99377
lowerneck -12.5743 15.2722 12.323
upperneck 35.4143 25.2372 -12.9307
head 19.2375 10.5499 -2.42195
rclavicle -9.14409e-015 2.38542e-014
rhumerus -37.2531 -9.13281 -75.663
rradius 32.943
rwrist -4.63735
rhand -14.4279 19.5216
rfingers 7.12502
rthumb 11.7165 -10.1308
lclavicle -9.14409e-015 2.38542e-014
lhumerus -38.8226 12.3256 82.724
lradius 31.8919
lwrist -7.72787
lhand -2.51023 27.7462
lfingers 7.12502
lthumb 23.1839 56.3709
rfemur -37.5352 -5.5936 21.5754
rtibia 48.1771
rfoot -20.6151 -6.28065
rtoes -1.88672
lfemur -1.15223 -0.303882 -24.3268
ltibia 24.2509
lfoot 15.4164 -5.19149
ltoes -6.2184
283
root 14.6283 20.89 15.5616 9.91416 2.86725 3.29477
lowerback 5.57097 0.0975164 0.0610569
upperback 1.04855 0.205649 3.07807
thorax -2.05549 0.109856 3.12368
lowerneck -12.6043 15.1103 13.0925
upperneck 35.8698 25.1983 -13.5733
head 19.8622 10.5412 -2.84121
rclavicle -1.51076e-014 -3.97569e-014
rhumerus -36.7844 -8.99482 -75.5723
rradius 32.7865
rwrist -4.46729
rhand -14.4215 20.0624
rfingers 7.12502
rthumb 11.7227 -9.58959
lclavicle -1.51076e-014 -3.97569e-014
lhumerus -38.4928 12.2682 82.9304
lradius 31.6706
lwrist -7.86592
lhand -2.14358 27.7519
lfingers 7.12502
lthumb 23.5357 56.3319
rfemur -37.0784 -5.16154 22.1785
rtibia 47.2956
rfoot -20.3852 -6.54722
rtoes -2.15397
lfemur -2.7341 0.261303 -23.6872
ltibia 26.6501
lfoot 15.715 -4.595
ltoes -5.06976
284
root 14.6229 20.9415 15.681 9.68905 3.57714 3.05694
lowerback 5.74595 -0.0547637 0.686348
upperback 0.931881 0.0528205 3.25932
thorax -2.26505 0.031921 2.97135
lowerneck -12.8828 14.8682 12.6772
upperneck 36.1312 24.711 -13.0358
head 19.7619 10.333 -2.66001
rclavicle 1.03368e-014 3.65764e-014
rhumerus -36.9478 -8.69654 -75.3902
rradius 32.7617
rwrist -4.19912
rhand -14.2807 20.3929
rfingers 7.12502
rthumb 11.8584 -9.25133
lclavicle 1.03368e-014 3.65764e-014
lhumerus -39.6519 11.8077 82.9963
lradius 32.3957
lwrist -7.35808
lhand -1.83138 27.9624
lfingers 7.12502
lthumb 23.8351 56.5037
rfemur -35.6782 -6.3018 22.5478
rtibia 46.3527
rfoot -20.7086 -6.13917
rtoes -2.64035
lfemur -3.49495 0.406135 -23.2809
ltibia 29.0006
lfoot 15.5123 -4.21989
ltoes -4.77644
285
root 14.6102 20.9926 15.7957 9.55051 4.08211 3.0046
lowerback 5.89362 -0.0710422 1.13094
upperback 0.438034 0.0812455 3.28048
thorax -2.85811 0.0460913 2.74429
lowerneck -11.8431 14.3324 12.6955
upperneck 36.2556 23.8238 -12.7492
head 19.2978 10.103 -2.86806
rclavicle -6.36111e-015 -2.70347e-014
rhumerus -38.1938 -8.64221 -75.0757
rradius 33.1212
rwrist -3.82941
rhand -14.1017 20.3269
rfingers 7.12502
rthumb 12.031 -9.30727
lclavicle -6.36111e-015 -2.70347e-014
lhumerus -40.692 11.3307 82.843
lradius 32.4179
lwrist -7.19837
lhand -1.53959 28.4736
lfingers 7.12502
lthumb 24.1149 56.9781
rfemur -34.4574 -7.10177 22.6815
rtibia 45.3928
rfoot -20.8199 -5.866
rtoes -2.5807
lfemur -4.35226 0.730799 -23.1059
ltibia 31.2683
lfoot 15.5427 -3.64043
ltoes -3.87649
286
root 14.5908 21.0366 15.8808 9.51095 4.27668 2.9955
lowerback 5.41332 -0.033848 1.21221
upperback 0.9929 0.103623 3.39628
thorax -2.018 0.0531465 2.81103
lowerneck -13.0655 14.371 11.8619
upperneck 35.6779 23.6573 -12.3202
head 18.96 9.91442 -2.4882
rclavicle 6.36111e-015 1.90833e-014
rhumerus -37.262 -8.64997 -75.1726
rradius 33.3774
rwrist -3.74444
rhand -13.8218 19.8371
rfingers 7.12502
rthumb 12.301 -9.78103
lclavicle 6.36111e-015 1.90833e-014
lhumerus -39.8509 11.606 82.9144
lradius 32.4435
lwrist -7.12755
lhand -1.7349 28.3294
lfingers 7.12502
lthumb 23.9276 56.8585
rfemur -33.5412 -7.3042 22.7477
rtibia 44.3999
rfoot -20.6562 -5.80274
rtoes -2.16356
lfemur -5.38997 1.28718 -23.0285
ltibia 33.3741
lfoot 15.613 -3.29906
ltoes -2.12578
287
root 14.5719 21.0766 15.955 9.42422 4.37895 2.7493
lowerback 5.44149 0.0587328 1.57201
upperback 1.1504 0.245616 3.52849
thorax -1.87636 0.121671 2.73487
lowerneck -13.7799 14.3501 11.2392
upperneck 35.4673 23.4008 -11.6878
head 18.6996 9.77073 -2.12579
rclavicle -3.97569e-015 3.18055e-014
rhumerus -36.8435 -8.52656 -75.1805
rradius 33.3544
rwrist -3.69648
rhand -13.7121 19.6909
rfingers 7.12502
rthumb 12.4066 -9.92091
lclavicle -3.97569e-015 3.18055e-014
lhumerus -39.7871 11.5781 82.8606
lradius 32.4952
lwrist -6.70965
lhand -2.34176 27.807
lfingers 7.12502
lthumb 23.3456 56.4113
rfemur -32.6611 -7.32695 23.0535
rtibia 43.4401
rfoot -20.4913 -5.73335
rtoes -1.68977
lfemur -6.53785 1.97443 -22.7023
ltibia 35.6992
lfoot 15.4833 -3.29657
ltoes -1.09683
